<svg width="32" height="32" viewBox="0 0 32 32" fill="none" xmlns="http://www.w3.org/2000/svg">
<g clip-path="url(#clip0_494_978)">
<path d="M9.15625 14.125C9.2375 14.125 14.125 9.2375 14.125 9.15625C14.125 9.02499 5.7873 0.768358 5.4248 0.537109C4.52493 -0.031353 3.33767 -0.168785 2.33789 0.174805C1.27539 0.549805 0.549805 1.27539 0.174805 2.33789C0.0312257 2.76245 1.53407e-05 2.94386 0 3.47461C0 4.1933 0.0936207 4.56885 0.424805 5.21875C0.624805 5.61875 1.03164 6.03769 4.86914 9.8877C7.18406 12.2151 9.11271 14.1189 9.15625 14.125ZM16.6123 20.375C16.6373 20.375 19.9631 17.0627 24.0068 13.0127C30.8067 6.20654 31.3689 5.625 31.5752 5.21875C31.9064 4.57506 32 4.19382 32 3.48145C32 2.9877 31.9688 2.77481 31.8438 2.39355C31.475 1.31252 30.7316 0.549812 29.6631 0.174805C29.2318 0.0248051 29.0625 -0.000389099 28.5 0.00585938C28.0501 0.00587082 27.7375 0.0441513 27.5 0.119141C26.5441 0.425226 26.9177 0.0762005 18.9873 7.99414C14.9375 12.0377 11.625 15.3627 11.625 15.3877C11.6264 15.4133 11.9077 15.575 12.2568 15.7559C14.0068 16.6559 15.3819 18.044 16.2881 19.8252C16.4373 20.1297 16.5862 20.3725 16.6123 20.375ZM0.244141 32C1.00074 31.9999 4.15034 31.6 5.85645 31.2812C8.55007 30.7875 10.5814 30.1566 11.8252 29.4316C13.0376 28.7254 14.0564 27.2939 14.4814 25.7002C14.6252 25.1627 14.6504 24.975 14.6504 24.0312C14.6566 22.8125 14.5564 22.2998 14.1377 21.3311C13.8003 20.5438 13.3816 19.9377 12.7256 19.2754C11.8257 18.3755 10.8004 17.7942 9.60059 17.4941C8.91934 17.3191 7.4752 17.2812 6.79395 17.4062C4.96895 17.75 3.3625 18.8189 2.53125 20.2314C1.79381 21.5002 1.10055 23.8502 0.600586 26.8125C0.369336 28.1625 0.0941406 30.3689 0.0253906 31.3877L-0.0185547 32H0.244141ZM32 26.9688L27.4189 22.3877C24.9064 19.8752 22.8125 17.8125 22.7812 17.8125C22.7402 17.8162 21.6104 18.9209 20.2627 20.2686C18.9189 21.6123 17.8125 22.75 17.8125 22.7812C17.8125 22.8125 19.8752 24.9064 22.3877 27.4189L26.9688 32H32V26.9688Z" fill="url(#paint0_linear_494_978)"/>
</g>
<defs>
<linearGradient id="paint0_linear_494_978" x1="26.4364" y1="26.7311" x2="12.9178" y2="-11.0611" gradientUnits="userSpaceOnUse">
<stop offset="0.00426348" stop-color="#BC91F6"/>
<stop offset="0.375784" stop-color="#5087ED"/>
<stop offset="1" stop-color="#4795E4"/>
</linearGradient>
<clipPath id="clip0_494_978">
<rect width="32" height="32" fill="white"/>
</clipPath>
</defs>
</svg>
