<svg width="32" height="32" viewBox="0 0 32 32" fill="none" xmlns="http://www.w3.org/2000/svg">
<path d="M13.5996 8.38181C13.8308 8.53179 14.4062 8.54405 14.625 8.40036C14.7125 8.34412 15.4749 7.60669 16.3311 6.75681L17.875 5.21872L19.4248 6.75681C20.2748 7.60676 21.0375 8.34411 21.125 8.40036C21.3313 8.53153 21.9187 8.53154 22.125 8.40036C22.2125 8.34411 23.1684 7.41227 24.2559 6.33102L26.2314 4.36227L26.2627 5.16891C26.2877 5.81887 26.3121 6.01912 26.4121 6.18161C26.5871 6.48151 26.8623 6.62488 27.2559 6.62497C27.6307 6.62497 27.8746 6.50014 28.0684 6.21286C28.1809 6.04411 28.1875 5.88122 28.1875 3.81247C28.1875 1.74429 28.1808 1.58177 28.0684 1.41306C28.0059 1.31943 27.8691 1.18172 27.7754 1.11911C27.6066 1.00661 27.4437 0.999969 25.375 0.999969C23.3062 0.999969 23.1434 1.00661 22.9746 1.11911C22.6874 1.31278 22.5625 1.55025 22.5625 1.93747C22.5625 2.32493 22.6872 2.56307 22.9746 2.75681C23.1309 2.85681 23.2812 2.87497 24.0312 2.87497H24.9062L21.625 6.15622L20.0811 4.61911C19.2254 3.7697 18.4634 3.03271 18.375 2.97556C18.2813 2.91309 18.094 2.87501 17.8691 2.87497C17.5817 2.87497 17.4753 2.90672 17.2754 3.05661C16.9879 3.26911 13.4371 6.83747 13.2871 7.06247C13.2246 7.1562 13.1875 7.34384 13.1875 7.56247C13.1875 7.94993 13.3122 8.18807 13.5996 8.38181ZM25.5 30.9873C26.0937 30.9685 26.2 30.9437 26.5938 30.75C27.1687 30.475 27.6621 29.9812 27.9434 29.4062C28.1496 28.9812 28.1562 28.95 28.1562 28.1875C28.1562 27.425 28.1496 27.3937 27.9434 26.9687C27.6621 26.3939 27.1686 25.9003 26.5938 25.6191L26.1562 25.4062L12.0312 25.3437L11.8125 25.206C11.5251 25.031 11.375 24.7624 11.375 24.4375C11.375 24.1125 11.5251 23.8439 11.8125 23.6689L12.0312 23.5312L19.8125 23.5C25.5438 23.475 27.625 23.4498 27.7188 23.3935C27.7875 23.356 27.9065 23.256 27.9814 23.1748C28.0699 23.0779 28.7827 21.0658 30.0566 17.3066C31.5747 12.8461 31.9996 11.52 32 11.2754C32 10.9318 31.8689 10.6816 31.5879 10.4941C31.4129 10.3816 31.075 10.375 20.3125 10.375H9.21875L8.41211 7.95016C7.97461 6.61892 7.55605 5.41227 7.4873 5.26852C7.4185 5.1186 7.27454 4.94992 7.16211 4.87497C6.96233 4.75641 6.86087 4.74997 3.77539 4.74997C0.762891 4.74997 0.580859 4.75661 0.412109 4.86911C0.124924 5.0628 1.48189e-05 5.3002 0 5.68747C0 6.07475 0.124951 6.31214 0.412109 6.50583C0.580859 6.61833 0.75625 6.62497 3.25 6.62497H5.90625L8.44336 14.2373L10.9814 21.8564L10.5684 22.1621C10.0934 22.5183 9.70588 23.0498 9.53711 23.581C9.44963 23.8622 9.43146 24.0875 9.4502 24.581C9.46895 25.1373 9.5002 25.2687 9.66895 25.625C9.78143 25.8499 9.96914 26.1496 10.0879 26.2871C10.3441 26.587 10.8561 26.9432 11.2061 27.0683C11.431 27.1496 11.4436 27.1625 11.3936 27.3437C11.3686 27.4437 11.3438 27.8562 11.3438 28.25C11.3438 28.931 11.3566 28.9873 11.5439 29.3808C11.9064 30.1182 12.4561 30.612 13.2246 30.8808C13.5309 30.9871 13.7063 31.006 14.25 30.9873C14.8437 30.9685 14.95 30.9437 15.3438 30.75C15.9187 30.475 16.4121 29.9812 16.6934 29.4062C16.8934 28.9875 16.9062 28.9375 16.9062 28.2812C16.9062 27.9002 16.8877 27.5192 16.8564 27.4189L16.8125 27.25H22.6875L22.6436 27.4248C22.6123 27.5185 22.5938 27.9 22.5938 28.2812C22.5938 28.9248 22.6066 28.9936 22.7939 29.3808C23.1564 30.1182 23.7061 30.6058 24.4746 30.8808C24.7809 30.9871 24.9562 31.006 25.5 30.9873ZM10.1689 13.2314C10.0067 12.7447 9.87543 12.3202 9.875 12.2939C9.875 12.2689 10.6436 12.25 11.5811 12.25H13.2939L13.6064 14.125H10.4629L10.1689 13.2314ZM15.2686 12.25H18.75V14.125H15.5811L15.2686 12.25ZM20.6875 12.25H24.2314L23.9189 14.125H20.6875V12.25ZM26.2061 12.25H27.9502C28.9064 12.25 29.6875 12.2689 29.6875 12.2939C29.6871 12.3261 29.5433 12.7446 29.3623 13.2314L29.0371 14.125H25.8936L26.2061 12.25ZM11.4189 16.9814C11.2567 16.4947 11.1254 16.0702 11.125 16.0439C11.125 16.0189 11.7561 16 12.5186 16H13.9189L14.2314 17.875H11.7129L11.4189 16.9814ZM15.8936 16H18.75V17.875H16.2061L15.8936 16ZM20.6875 16H23.6064L23.2939 17.875H20.6875V16ZM25.5811 16H26.9814C27.7439 16 28.375 16.0189 28.375 16.0439C28.3746 16.0702 28.2433 16.4947 28.0811 16.9814L27.7871 17.875H25.2686L25.5811 16ZM12.6689 20.7314C12.5067 20.2447 12.3754 19.8202 12.375 19.7939C12.375 19.7689 12.8624 19.75 13.4561 19.75H14.5439L14.8564 21.625H12.9629L12.6689 20.7314ZM16.5186 19.75H18.75V21.625H16.8311L16.5186 19.75ZM20.6875 19.75H22.9814L22.6689 21.625H20.6875V19.75ZM24.9561 19.75H26.0439C26.6376 19.75 27.125 19.7689 27.125 19.7939C27.1246 19.8202 26.9933 20.2447 26.8311 20.7314L26.5371 21.625H24.6436L24.9561 19.75Z" fill="url(#paint0_linear_494_917)"/>
<defs>
<linearGradient id="paint0_linear_494_917" x1="26.4397" y1="26.0574" x2="14.3993" y2="-9.84581" gradientUnits="userSpaceOnUse">
<stop offset="0.00426348" stop-color="#BC91F6"/>
<stop offset="0.375784" stop-color="#5087ED"/>
<stop offset="1" stop-color="#4795E4"/>
</linearGradient>
</defs>
</svg>
