<svg width="30" height="23" viewBox="0 0 30 23" fill="none" xmlns="http://www.w3.org/2000/svg">
<path d="M27 6.66699C28.4664 6.66711 29.6658 7.8666 29.666 9.33301C29.666 11.2663 27.746 12.3472 26.3193 11.9072L21.5732 16.6396C22.0266 18.0796 20.9332 19.9999 19 20C17.0533 20 15.9734 18.0663 16.4268 16.6396L13.0264 13.2402C12.6264 13.3602 12.0396 13.3602 11.6396 13.2402L5.57324 19.3203C6.01303 20.7469 4.93308 22.6668 3 22.667C1.53333 22.667 0.333008 21.4667 0.333008 20C0.333062 18.0668 2.25305 16.9868 3.67969 17.4268L9.75977 11.3604C9.30644 9.92038 10.3997 8.00007 12.333 8C14.2797 8 15.3596 9.93368 14.9062 11.3604L18.3066 14.7598C18.7066 14.6398 19.2934 14.6398 19.6934 14.7598L24.4268 10.0137C23.9868 8.587 25.0667 6.66699 27 6.66699ZM4.33301 6.66699L7 7.33301L4.33301 8L3.66602 10.667L3 8L0.333008 7.33301L3 6.66699L3.66602 4L4.33301 6.66699ZM20.2529 2.75977L23 4L20.2529 5.24023L19 8L17.7734 5.24023L15 4L17.7734 2.75977L19 0L20.2529 2.75977Z" fill="url(#paint0_linear_494_966)"/>
<defs>
<linearGradient id="paint0_linear_494_966" x1="24.5691" y1="3.73081" x2="16.8164" y2="31.7717" gradientUnits="userSpaceOnUse">
<stop offset="0.00426348" stop-color="#BC91F6"/>
<stop offset="0.375784" stop-color="#5087ED"/>
<stop offset="1" stop-color="#4795E4"/>
</linearGradient>
</defs>
</svg>
