<svg width="32" height="32" viewBox="0 0 32 32" fill="none" xmlns="http://www.w3.org/2000/svg">
<g clip-path="url(#clip0_494_950)">
<path d="M17.375 4.09375L18.3936 5.1123C18.9498 5.66855 19.4375 6.125 19.4688 6.125C19.5063 6.125 19.9562 5.7 20.4688 5.1875L21.4062 4.25L19.5312 2.375C17.825 0.6625 17.6121 0.475195 17.1934 0.262695C16.7623 0.0503044 16.6808 0.0314426 16.0996 0.0126953C15.6186 0.000219345 15.3937 0.0252171 15.1562 0.106445C14.9812 0.168953 14.7187 0.293957 14.5625 0.387695C14.406 0.481724 13.4563 1.38163 12.4502 2.3877L10.625 4.21875L12.5625 6.15625L14.625 4.09375V10.6875H17.375V4.09375ZM6.6875 10.7188L8.8125 12.8438L9.75 11.9062C10.2625 11.3938 10.6875 10.9438 10.6875 10.9062C10.6875 10.8687 9.85018 10.006 8.8252 8.9873C7.1877 7.34981 6.91875 7.11211 6.5625 6.94336C5.86271 6.61224 5.31889 6.5562 4.61914 6.7373C4.39423 6.79978 4.07543 6.93771 3.90039 7.04395C3.73164 7.15644 2.78125 8.0625 1.78125 9.0625L-0.03125 10.875L1.90625 12.8125L4 10.7188V32H6.6875V10.7188ZM28 14.7188L30.125 16.8438L31.0625 15.9062C31.575 15.3938 32 14.9438 32 14.9062C32 14.7875 28.2881 11.1446 28 10.9814C27.4375 10.6564 26.6373 10.5562 26.0186 10.7188C25.2875 10.9187 25.1184 11.05 23.1562 13.0059L21.2812 14.875L23.2188 16.8125L25.3125 14.7188V32H28V14.7188ZM17.375 29.3877L17.7373 29.3496C19.7185 29.1184 21.2058 27.5687 21.3496 25.5938C21.4684 23.8813 20.4062 22.3121 18.7812 21.7871C18.6122 21.7371 17.5248 21.5375 16.375 21.3438C15.2258 21.1564 14.1638 20.9568 14.0127 20.9004C13.0502 20.5441 13.2504 19.0752 14.3066 18.7627C14.6329 18.6628 17.3663 18.6623 17.6934 18.7559C18.1621 18.8996 18.6187 19.4439 18.625 19.8564V20H21.375V19.8438C21.375 19.4563 21.1623 18.6812 20.9248 18.1875C20.331 16.9688 18.8935 16 17.6748 16H17.375V13.3125H14.625V16H14.3252C13.1066 16 11.6566 16.9748 11.0752 18.1934C10.194 20.0119 10.6875 21.9933 12.2871 23.0996C12.8309 23.4746 13.3064 23.6 15.7002 24C18.1744 24.4124 18.2814 24.4499 18.5 24.8809C18.8062 25.4746 18.4748 26.2441 17.7998 26.5254C17.4547 26.669 14.5453 26.669 14.2002 26.5254C13.7753 26.3504 13.3814 25.8377 13.375 25.4502V25.3125H10.6123L10.6562 25.7246C10.8625 27.6433 12.3374 29.1245 14.2686 29.3496L14.625 29.3877V32H17.375V29.3877Z" fill="url(#paint0_linear_494_950)"/>
</g>
<defs>
<linearGradient id="paint0_linear_494_950" x1="26.4342" y1="26.7346" x2="12.9356" y2="-11.0416" gradientUnits="userSpaceOnUse">
<stop offset="0.00426348" stop-color="#BC91F6"/>
<stop offset="0.375784" stop-color="#5087ED"/>
<stop offset="1" stop-color="#4795E4"/>
</linearGradient>
<clipPath id="clip0_494_950">
<rect width="32" height="32" fill="white"/>
</clipPath>
</defs>
</svg>
