<svg width="32" height="32" viewBox="0 0 32 32" fill="none" xmlns="http://www.w3.org/2000/svg">
<path d="M15.375 0.125038C15.0625 0.287539 14.8312 0.550039 14.7187 0.868788C14.6437 1.08129 14.625 1.44379 14.625 2.56879V4.00004H11.6C9.1625 4.00004 8.48125 4.01879 8.08125 4.09379C5.23125 4.63754 3.05 6.95004 2.6875 9.82504C2.65625 10.1125 2.625 10.7125 2.625 11.1688V12H2.09375C1.7125 12 1.46875 12.0375 1.21875 12.1313C0.75625 12.3063 0.30625 12.7563 0.13125 13.2188C0.00625 13.55 0 13.6875 0 16C0 18.3125 0.00625 18.45 0.13125 18.7813C0.30625 19.2438 0.75625 19.6938 1.21875 19.8688C1.46875 19.9625 1.7125 20 2.09375 20H2.625V20.8563C2.625 22.2938 2.8375 23.3063 3.35 24.3313C4.29375 26.2063 6.025 27.5125 8.0625 27.9C8.50625 27.9875 9.35625 28 14.05 28H19.5312L22.3437 29.875C24.2875 31.1688 25.2687 31.7875 25.525 31.875C26.0312 32.05 26.9062 32.05 27.4062 31.875C28.1 31.6375 28.575 31.25 28.9625 30.6063C29.375 29.9125 29.375 29.9125 29.375 24.6938V20.0125L29.9875 19.9875C30.4625 19.975 30.6562 19.9375 30.8875 19.825C31.2625 19.6375 31.6375 19.2625 31.825 18.8875C31.9687 18.6 31.9687 18.5625 31.9875 16.0875C32.0062 13.6625 32 13.5688 31.8687 13.225C31.6937 12.7563 31.25 12.3063 30.7812 12.1313C30.5312 12.0375 30.2875 12 29.9062 12H29.375V11.1375C29.375 9.71879 29.1687 8.71254 28.6812 7.72504C27.875 6.11254 26.5062 4.90004 24.85 4.33754C23.925 4.01879 23.6437 4.00004 20.4 4.00004H17.375V2.56879C17.375 1.00629 17.3312 0.756289 17.0125 0.418789C16.9187 0.318789 16.7375 0.187538 16.6125 0.118788C16.3 -0.0374603 15.675 -0.0374603 15.375 0.125038ZM23.425 6.78754C24.9187 7.08754 26.1187 8.23754 26.5 9.72504C26.6187 10.1938 26.625 10.4563 26.625 19.7313C26.625 27.8313 26.6125 29.2563 26.5375 29.2875C26.4875 29.3063 25.1625 28.4625 23.4687 27.3313L20.4812 25.3438L14.5687 25.3125C9.46875 25.2813 8.6125 25.2625 8.34375 25.1813C6.875 24.725 5.8625 23.6875 5.5 22.275C5.38125 21.8125 5.375 21.5625 5.375 16C5.375 10.4375 5.38125 10.1875 5.5 9.72504C5.7875 8.60004 6.55625 7.63129 7.5625 7.14379C8.50625 6.68129 8.15 6.70004 15.9562 6.69379C22.05 6.68754 23.0062 6.70004 23.425 6.78754Z" fill="url(#paint0_linear_494_939)"/>
<path d="M10.8562 10.6874C10.2687 10.8374 9.7562 11.2499 9.5062 11.7812C9.28745 12.2374 9.2562 12.9187 9.4312 13.3812C9.61245 13.8499 9.9812 14.2624 10.4249 14.4812C10.7374 14.6312 10.8499 14.6562 11.3437 14.6562C11.9999 14.6562 12.3312 14.5249 12.7562 14.1124C13.1499 13.7249 13.3374 13.2624 13.3437 12.6562C13.3437 12.2374 13.3187 12.0999 13.1687 11.8062C12.9687 11.3937 12.5437 10.9812 12.1562 10.8062C11.8312 10.6624 11.1937 10.6062 10.8562 10.6874Z" fill="url(#paint1_linear_494_939)"/>
<path d="M20.1249 10.7062C19.5562 10.8687 19.0437 11.3124 18.7937 11.8687C18.5937 12.3062 18.6062 13.0437 18.8249 13.5062C19.0249 13.9374 19.3687 14.2999 19.7812 14.4999C20.0437 14.6312 20.1874 14.6562 20.6562 14.6562C21.1499 14.6562 21.2624 14.6312 21.5749 14.4812C21.7749 14.3812 22.0437 14.1812 22.1812 14.0187C22.8812 13.2249 22.8499 11.9749 22.1062 11.2312C21.6249 10.7499 20.7687 10.5249 20.1249 10.7062Z" fill="url(#paint2_linear_494_939)"/>
<path d="M10.3249 18.3062C9.45612 18.5249 9.02487 19.6249 9.51862 20.3687C9.96237 21.0312 12.2811 22.1124 14.1249 22.5062C14.6811 22.6312 14.9686 22.6499 15.9999 22.6499C17.3436 22.6499 17.9061 22.5624 19.1186 22.1749C20.2124 21.8249 21.7311 21.0812 22.2561 20.6437C22.5124 20.4249 22.6874 20.0437 22.6874 19.6812C22.6874 18.8562 22.1436 18.2874 21.3436 18.2874C20.9811 18.2874 20.8999 18.3187 20.2749 18.6687C18.6374 19.5812 17.4186 19.9437 16.0061 19.9437C14.5936 19.9437 13.3936 19.5874 11.7561 18.6874C11.0686 18.3062 10.7124 18.2124 10.3249 18.3062Z" fill="url(#paint3_linear_494_939)"/>
<defs>
<linearGradient id="paint0_linear_494_939" x1="26.4358" y1="26.7387" x2="12.9153" y2="-11.0403" gradientUnits="userSpaceOnUse">
<stop offset="0.00426348" stop-color="#BC91F6"/>
<stop offset="0.375784" stop-color="#5087ED"/>
<stop offset="1" stop-color="#4795E4"/>
</linearGradient>
<linearGradient id="paint1_linear_494_939" x1="12.6443" y1="13.9968" x2="10.9584" y2="9.26231" gradientUnits="userSpaceOnUse">
<stop offset="0.00426348" stop-color="#BC91F6"/>
<stop offset="0.375784" stop-color="#5087ED"/>
<stop offset="1" stop-color="#4795E4"/>
</linearGradient>
<linearGradient id="paint2_linear_494_939" x1="21.9849" y1="13.9957" x2="20.2971" y2="9.25326" gradientUnits="userSpaceOnUse">
<stop offset="0.00426348" stop-color="#BC91F6"/>
<stop offset="0.375784" stop-color="#5087ED"/>
<stop offset="1" stop-color="#4795E4"/>
</linearGradient>
<linearGradient id="paint3_linear_494_939" x1="20.363" y1="21.9294" x2="19.6897" y2="16.179" gradientUnits="userSpaceOnUse">
<stop offset="0.00426348" stop-color="#BC91F6"/>
<stop offset="0.375784" stop-color="#5087ED"/>
<stop offset="1" stop-color="#4795E4"/>
</linearGradient>
</defs>
</svg>
